<svg xmlns="http://www.w3.org/2000/svg" width="27.691" height="19.3" viewBox="0 0 27.691 19.3">
  <g id="brand" transform="translate(-1573.77 -1536.034)">
    <path id="Path_198" data-name="Path 198" d="M150.512,70.356a9.554,9.554,0,0,1-7.679,8.538,9.686,9.686,0,0,1-10.36-4.792,9.643,9.643,0,1,1,18-6.011c.024.167-.238.541-.32.528-.386-.062-.966.326-1.091-.466a7.741,7.741,0,0,0-2.316-4.5,8.222,8.222,0,0,0-13.963,4.71,7.715,7.715,0,0,0,3.635,7.9,8.179,8.179,0,0,0,12.6-5.288C149.181,70.169,149.333,70.1,150.512,70.356Z" transform="translate(1442.505 1476.245)"/>
    <path id="Path_199" data-name="Path 199" d="M158.7,79.564c-1.106.376-1.264.3-1.586-.689a5.178,5.178,0,0,0-9.8-.017,5.166,5.166,0,0,0,1.726,5.743,5.086,5.086,0,0,0,5.981.253,5.164,5.164,0,0,0,2.1-2.671c.328-1,.477-1.067,1.537-.73a6.32,6.32,0,0,1-6.022,5.652,6.6,6.6,0,1,1,6.073-7.542Z" transform="translate(1431.227 1465.158)"/>
    <path id="Path_200" data-name="Path 200" d="M166.562,92.714a3.249,3.249,0,0,1-3.632,2.565,3.553,3.553,0,0,1-3.248-3.4,3.642,3.642,0,0,1,2.939-3.619,3.515,3.515,0,0,1,4.027,2.621c-.681.1-1.262.264-1.81-.449a2.008,2.008,0,0,0-3.1-.159,2.1,2.1,0,1,0,3.156,2.756C165.354,92.474,165.6,92.426,166.562,92.714Z" transform="translate(1420.192 1453.921)"/>
    <path id="Path_201" data-name="Path 201" d="M247.5,92.29c.191.155.479.273.526.453a1.048,1.048,0,0,1-.109.8c-.283.391-.711.678-1,1.069a.752.752,0,0,0,0,.7,10.846,10.846,0,0,0,.96,1.007c.307.328.419.764.021,1.011a1.1,1.1,0,0,1-1.011-.017,16.631,16.631,0,0,1-1.775-1.747.819.819,0,0,1-.006-1.2c.584-.625,1.2-1.222,1.82-1.81A2.086,2.086,0,0,1,247.5,92.29Z" transform="translate(1353.298 1450.721)"/>
    <path id="Path_202" data-name="Path 202" d="M229.117,95.321c.44.346.891.676,1.316,1.041a.727.727,0,0,1,.129,1.151c-.386.393-.784.238-1.14-.135-.487-.513-1-1-1.5-1.5a.933.933,0,0,1-.043-1.475c.528-.543,1.069-1.073,1.606-1.608a.723.723,0,1,1,1,1.018c-.431.391-.9.741-1.355,1.108C229.125,95.05,229.121,95.185,229.117,95.321Z" transform="translate(1366.903 1450.567)"/>
  </g>
</svg>
