<svg xmlns="http://www.w3.org/2000/svg" width="16.612" height="21.591" viewBox="0 0 16.612 21.591">
  <path id="icon_3" d="M8.825.457C4.387.457,0,3.416,0,8.2c0,3.045,1.713,4.776,2.751,4.776.428,0,.675-1.194.675-1.531,0-.4-1.025-1.259-1.025-2.933A5.846,5.846,0,0,1,8.475,2.572c2.946,0,5.126,1.674,5.126,4.75,0,2.3-.921,6.606-3.906,6.606a1.921,1.921,0,0,1-2-1.895c0-1.635,1.142-3.219,1.142-4.906,0-2.864-4.062-2.345-4.062,1.116a5.082,5.082,0,0,0,.415,2.193c-.6,2.57-1.817,6.4-1.817,9.046,0,.818.117,1.622.195,2.44.147.164.074.147.3.065,2.18-2.985,2.1-3.569,3.089-7.475a3.509,3.509,0,0,0,3,1.557c4.594,0,6.658-4.477,6.658-8.514C16.612,3.26,12.9.457,8.825.457Z" transform="translate(0 -0.457)"/>
</svg>
