<svg xmlns="http://www.w3.org/2000/svg" width="19.38" height="19.38" viewBox="0 0 19.38 19.38">
  <path id="icon_4" d="M18,2.25H1.38A1.39,1.39,0,0,0,0,3.647V20.233a1.39,1.39,0,0,0,1.38,1.4H18a1.394,1.394,0,0,0,1.384-1.4V3.647A1.394,1.394,0,0,0,18,2.25ZM5.857,18.862H2.985V9.613H5.862v9.249ZM4.421,8.35A1.665,1.665,0,1,1,6.087,6.684,1.666,1.666,0,0,1,4.421,8.35Zm12.2,10.512H13.752v-4.5c0-1.073-.022-2.453-1.492-2.453-1.5,0-1.726,1.168-1.726,2.375v4.577H7.661V9.613h2.756v1.263h.039a3.025,3.025,0,0,1,2.721-1.492c2.907,0,3.448,1.916,3.448,4.408Z" transform="translate(0 -2.25)"/>
</svg>
