<svg xmlns="http://www.w3.org/2000/svg" width="16.711" height="18.888" viewBox="0 0 16.711 18.888">
  <path id="info" d="M18.369,8.718a9.968,9.968,0,0,1-.306,2.113,6.191,6.191,0,0,1-.8,1.855A4.275,4.275,0,0,1,15.9,14a3.761,3.761,0,0,1-1.984.5,2.821,2.821,0,0,1-1.435-.36,2.491,2.491,0,0,1-.97-1.019,3.05,3.05,0,0,1-2.6,1.338,2.626,2.626,0,0,1-1.3-.325,2.728,2.728,0,0,1-.973-.927,4.155,4.155,0,0,1-.564-1.449,6.4,6.4,0,0,1-.074-1.891,8.963,8.963,0,0,1,.562-2.316A6.327,6.327,0,0,1,7.607,5.785,4.409,4.409,0,0,1,9.035,4.654a3.9,3.9,0,0,1,1.736-.4,5.272,5.272,0,0,1,1.039.091,4.174,4.174,0,0,1,.806.248,4.323,4.323,0,0,1,.668.361c.2.135.409.274.613.415l-.5,5.949a2.026,2.026,0,0,0,.015.7.984.984,0,0,0,.207.43.745.745,0,0,0,.336.224,1.225,1.225,0,0,0,1.181-.238,2.572,2.572,0,0,0,.633-.826,5.41,5.41,0,0,0,.426-1.242,8.722,8.722,0,0,0,.187-1.546,10.12,10.12,0,0,0-.237-2.889A5.8,5.8,0,0,0,15.1,3.7a4.857,4.857,0,0,0-1.87-1.44A6.642,6.642,0,0,0,10.5,1.744a5.893,5.893,0,0,0-2.695.6A6.211,6.211,0,0,0,5.761,4.015a8.072,8.072,0,0,0-1.34,2.511,11.566,11.566,0,0,0-.564,3.128,10.651,10.651,0,0,0,.288,3.192,5.817,5.817,0,0,0,1.138,2.287A4.748,4.748,0,0,0,7.21,16.506a7.232,7.232,0,0,0,2.66.456,8.9,8.9,0,0,0,1.746-.192c.288-.059.561-.13.821-.208a6.081,6.081,0,0,0,.707-.26l.365,1.683a4.013,4.013,0,0,1-.791.4,7.473,7.473,0,0,1-.935.277,8.911,8.911,0,0,1-1.953.224A10.016,10.016,0,0,1,6.269,18.3a6.543,6.543,0,0,1-2.6-1.749,7.4,7.4,0,0,1-1.558-2.888A12.612,12.612,0,0,1,1.68,9.654a12.5,12.5,0,0,1,.748-3.848,9.57,9.57,0,0,1,1.8-3.057A8.225,8.225,0,0,1,6.983.732,8.433,8.433,0,0,1,10.546,0,8.8,8.8,0,0,1,14,.634,6.716,6.716,0,0,1,16.49,2.416,7.368,7.368,0,0,1,17.968,5.17,10.778,10.778,0,0,1,18.369,8.718ZM8.48,9.874a4.108,4.108,0,0,0,.2,1.991,1.041,1.041,0,0,0,1,.673,1.083,1.083,0,0,0,.343-.065,1.218,1.218,0,0,0,.395-.243,2.149,2.149,0,0,0,.4-.5,3.851,3.851,0,0,0,.368-.838l.394-4.622a2.3,2.3,0,0,0-.613-.083,2.076,2.076,0,0,0-1.019.24,2.04,2.04,0,0,0-.722.7,4.187,4.187,0,0,0-.479,1.157,10.034,10.034,0,0,0-.272,1.582Z" transform="translate(-1.67)" fill="#fff"/>
</svg>
