<svg xmlns="http://www.w3.org/2000/svg" width="23.115" height="23.11" viewBox="0 0 23.115 23.11">
  <path id="ins_1" d="M11.555,7.868a5.925,5.925,0,1,0,5.925,5.925A5.916,5.916,0,0,0,11.555,7.868Zm0,9.777a3.852,3.852,0,1,1,3.852-3.852,3.859,3.859,0,0,1-3.852,3.852ZM19.1,7.625a1.382,1.382,0,1,1-1.382-1.382A1.379,1.379,0,0,1,19.1,7.625Zm3.924,1.4a6.839,6.839,0,0,0-1.867-4.842A6.884,6.884,0,0,0,16.32,2.319c-1.908-.108-7.627-.108-9.535,0A6.874,6.874,0,0,0,1.943,4.181,6.862,6.862,0,0,0,.076,9.023c-.108,1.908-.108,7.627,0,9.535A6.839,6.839,0,0,0,1.943,23.4a6.893,6.893,0,0,0,4.842,1.867c1.908.108,7.627.108,9.535,0A6.839,6.839,0,0,0,21.162,23.4a6.884,6.884,0,0,0,1.867-4.842c.108-1.908.108-7.622,0-9.53ZM20.564,20.6a3.9,3.9,0,0,1-2.2,2.2c-1.521.6-5.131.464-6.812.464s-5.3.134-6.812-.464a3.9,3.9,0,0,1-2.2-2.2c-.6-1.521-.464-5.131-.464-6.812s-.134-5.3.464-6.812a3.9,3.9,0,0,1,2.2-2.2c1.521-.6,5.131-.464,6.812-.464s5.3-.134,6.812.464a3.9,3.9,0,0,1,2.2,2.2c.6,1.521.464,5.131.464,6.812S21.167,19.089,20.564,20.6Z" transform="translate(0.005 -2.238)" fill="#6f6b6b"/>
</svg>
