<svg xmlns="http://www.w3.org/2000/svg" width="27.393" height="25.753" viewBox="0 0 27.393 25.753">
  <path id="sna" d="M27.331,21.267c-.279.65-1.457,1.128-3.6,1.462a10.035,10.035,0,0,0-.348,1.282.62.62,0,0,1-.649.475h-.016c-.5,0-1.027-.231-2.079-.231a4.234,4.234,0,0,0-3.01,1.1,6.026,6.026,0,0,1-3.961,1.466,6.145,6.145,0,0,1-3.9-1.466,4.229,4.229,0,0,0-3.009-1.1,20.208,20.208,0,0,0-2.079.253.635.635,0,0,1-.665-.484,9.91,9.91,0,0,0-.349-1.291c-1.106-.172-3.6-.607-3.665-1.72a.569.569,0,0,1,.475-.592c3.723-.613,5.4-4.435,5.469-4.6l.013-.028a1.216,1.216,0,0,0,.132-1c-.27-.636-1.438-.865-1.929-1.059-1.269-.5-1.445-1.077-1.37-1.472a1.377,1.377,0,0,1,1.766-.827,3.062,3.062,0,0,0,1.26.337,1.092,1.092,0,0,0,.533-.116c-.109-1.923-.38-4.67.3-6.2A7.289,7.289,0,0,1,13.42,1.083l.541,0a7.239,7.239,0,0,1,6.78,4.368c.684,1.533.415,4.269.3,6.207a1.048,1.048,0,0,0,.46.114,3.2,3.2,0,0,0,1.181-.335,1.448,1.448,0,0,1,1.1,0h0a1.111,1.111,0,0,1,.834.956c.01.521-.456.972-1.385,1.339-.113.045-.251.089-.4.135-.524.166-1.316.418-1.531.924a1.215,1.215,0,0,0,.132,1c0,.009.009.018.013.028.07.162,1.745,3.984,5.47,4.6A.584.584,0,0,1,27.331,21.267Z" transform="translate(0 -1.078)" fill="#fff"/>
</svg>
