<svg xmlns="http://www.w3.org/2000/svg" width="27.393" height="31.531" viewBox="0 0 27.393 31.531">
  <path id="tik" d="M16.756.026C18.477,0,20.185.013,21.892,0a8.183,8.183,0,0,0,2.3,5.478,9.265,9.265,0,0,0,5.57,2.352v5.294a14.062,14.062,0,0,1-5.518-1.274,16.232,16.232,0,0,1-2.128-1.222c-.013,3.836.013,7.672-.026,11.5A10.035,10.035,0,0,1,20.316,27.3a9.788,9.788,0,0,1-7.764,4.217,9.58,9.58,0,0,1-5.36-1.353,9.907,9.907,0,0,1-4.8-7.5c-.026-.657-.039-1.314-.013-1.958a9.89,9.89,0,0,1,11.469-8.776c.026,1.944-.053,3.889-.053,5.833a4.508,4.508,0,0,0-5.754,2.785,5.212,5.212,0,0,0-.184,2.115,4.471,4.471,0,0,0,4.6,3.771A4.414,4.414,0,0,0,16.1,24.318a3.031,3.031,0,0,0,.539-1.393c.131-2.352.079-4.69.092-7.042.013-5.294-.013-10.576.026-15.857Z" transform="translate(-2.369)" fill="#fff"/>
</svg>
