<svg xmlns="http://www.w3.org/2000/svg" width="21.225" height="24.431" viewBox="0 0 21.225 24.431">
  <path id="tik_1" d="M13.516.02C14.85,0,16.173.01,17.5,0a6.341,6.341,0,0,0,1.781,4.245,7.179,7.179,0,0,0,4.316,1.822v4.1a10.9,10.9,0,0,1-4.275-.987,12.577,12.577,0,0,1-1.649-.947c-.01,2.972.01,5.945-.02,8.907a7.775,7.775,0,0,1-1.374,4.011,7.584,7.584,0,0,1-6.016,3.268,7.423,7.423,0,0,1-4.153-1.048A7.676,7.676,0,0,1,2.39,17.56c-.02-.509-.031-1.018-.01-1.517a7.663,7.663,0,0,1,8.887-6.8c.02,1.507-.041,3.013-.041,4.52a3.493,3.493,0,0,0-4.459,2.158,4.038,4.038,0,0,0-.143,1.639,3.465,3.465,0,0,0,3.563,2.922,3.42,3.42,0,0,0,2.82-1.639,2.349,2.349,0,0,0,.417-1.079c.1-1.822.061-3.634.071-5.456.01-4.1-.01-8.195.02-12.287Z" transform="translate(-2.369)" fill="#6f6b6b"/>
</svg>
