<svg xmlns="http://www.w3.org/2000/svg" width="42.599" height="42.599" viewBox="0 0 42.599 42.599">
  <path id="what_2" d="M23.936,2.25A20.832,20.832,0,0,0,3.023,23a20.537,20.537,0,0,0,3,10.715L2.25,44.849l11.578-3.678A20.948,20.948,0,0,0,44.849,23,20.832,20.832,0,0,0,23.936,2.25Zm10.4,28.632c-.492,1.22-2.717,2.333-3.7,2.384s-1.009.76-6.356-1.563-8.563-7.973-8.816-8.336-2.071-2.952-1.973-5.558a5.926,5.926,0,0,1,2.035-4.348,2.048,2.048,0,0,1,1.448-.61c.421-.007.694-.013,1.005,0s.779-.065,1.184,1.012,1.373,3.723,1.5,3.993a.969.969,0,0,1,.01.929,3.632,3.632,0,0,1-.567.864c-.279.3-.587.67-.836.9-.278.253-.568.53-.276,1.072A16,16,0,0,0,21.824,25.4a14.591,14.591,0,0,0,4.193,2.788c.524.286.837.254,1.163-.088s1.392-1.5,1.768-2.013.728-.416,1.212-.221,3.058,1.574,3.582,1.859.874.431,1,.656A4.392,4.392,0,0,1,34.335,30.882Z" transform="translate(-2.25 -2.25)" fill="#10cc2f"/>
</svg>
