<svg xmlns="http://www.w3.org/2000/svg" width="32.868" height="23.11" viewBox="0 0 32.868 23.11">
  <path id="_you" data-name=" you" d="M33.231,8.116a4.13,4.13,0,0,0-2.906-2.925C27.762,4.5,17.484,4.5,17.484,4.5s-10.278,0-12.841.691A4.13,4.13,0,0,0,1.737,8.116a43.323,43.323,0,0,0-.687,7.962,43.324,43.324,0,0,0,.687,7.962,4.068,4.068,0,0,0,2.906,2.878c2.563.691,12.841.691,12.841.691s10.278,0,12.841-.691a4.068,4.068,0,0,0,2.906-2.878,43.323,43.323,0,0,0,.687-7.962,43.323,43.323,0,0,0-.687-7.962ZM14.122,20.965V11.191l8.59,4.887-8.59,4.887Z" transform="translate(-1.05 -4.5)" fill="#6f6b6b"/>
</svg>
